<svg width="30" height="36" viewBox="0 0 30 36" fill="none" xmlns="http://www.w3.org/2000/svg">
<path d="M21.9281 0C22.0119 0 22.0956 0 22.1842 0C22.3897 2.5388 21.4206 4.43578 20.2429 5.80951C19.0873 7.17376 17.5049 8.4969 14.9456 8.29614C14.7749 5.7937 15.7455 4.03741 16.9216 2.66684C18.0124 1.38954 20.0121 0.252931 21.9281 0Z" fill="black"/>
<path d="M29.6758 26.4249C29.6758 26.4502 29.6758 26.4723 29.6758 26.496C28.9565 28.6744 27.9306 30.5413 26.6786 32.2739C25.5356 33.8468 24.135 35.9635 21.6342 35.9635C19.4732 35.9635 18.0378 34.574 15.8231 34.5361C13.4803 34.4981 12.1919 35.698 10.0499 35.9999C9.80489 35.9999 9.55986 35.9999 9.31958 35.9999C7.74666 35.7723 6.47726 34.5266 5.55248 33.4042C2.82557 30.0876 0.718337 25.8036 0.326294 20.3213C0.326294 19.7839 0.326294 19.248 0.326294 18.7105C0.49228 14.7869 2.39875 11.5968 4.9328 10.0508C6.27017 9.22873 8.10867 8.52842 10.1558 8.84143C11.0332 8.97738 11.9295 9.27773 12.7152 9.57493C13.4597 9.86105 14.3908 10.3685 15.2729 10.3416C15.8705 10.3242 16.4649 10.0128 17.0672 9.79308C18.8314 9.15601 20.5608 8.42567 22.8403 8.76871C25.5799 9.18288 27.5243 10.4001 28.7257 12.2781C26.4082 13.753 24.5761 15.9757 24.8891 19.7712C25.1673 23.219 27.1718 25.2361 29.6758 26.4249Z" fill="black"/>
</svg>
