<svg width="25" height="24" viewBox="0 0 25 24" fill="none" xmlns="http://www.w3.org/2000/svg">
<path d="M9.82387 23.1296C8.50612 23.1296 7.434 22.0575 7.434 20.7398C7.434 19.422 8.50612 18.3503 9.82387 18.3503C11.1416 18.3503 12.2137 19.422 12.2137 20.7398C12.2137 22.0575 11.1416 23.1296 9.82387 23.1296ZM9.82387 19.8503C9.33337 19.8503 8.934 20.2493 8.934 20.7398C8.934 21.2306 9.333 21.6296 9.82387 21.6296C10.3147 21.6296 10.7137 21.2306 10.7137 20.7398C10.7137 20.2493 10.3147 19.8503 9.82387 19.8503Z" fill="black"/>
<path d="M18.1316 23.1296C16.8139 23.1296 15.7421 22.0575 15.7421 20.7398C15.7421 19.422 16.8139 18.3503 18.1316 18.3503C19.4494 18.3503 20.5215 19.422 20.5215 20.7398C20.5215 22.0575 19.449 23.1296 18.1316 23.1296ZM18.1316 19.8503C17.6411 19.8503 17.2421 20.2493 17.2421 20.7398C17.2421 21.2306 17.6411 21.6296 18.1316 21.6296C18.6225 21.6296 19.0215 21.2306 19.0215 20.7398C19.0215 20.2493 18.6221 19.8503 18.1316 19.8503Z" fill="black"/>
<path d="M19.8814 16.4978H8.09925C6.95287 16.4978 5.97375 15.7174 5.718 14.5999L3.27262 3.921C3.24037 3.78 3.14287 3.65925 3.01162 3.5985L0.983246 2.65838C0.513746 2.44088 0.309371 1.88363 0.526871 1.41375C0.744371 0.94425 1.302 0.739875 1.7715 0.957375L3.79987 1.8975C4.4535 2.20013 4.93987 2.80013 5.10037 3.5025L7.54575 14.1821C7.605 14.4416 7.83262 14.6231 8.09925 14.6231H19.8814C20.1469 14.6231 20.3741 14.4428 20.4349 14.184L22.3361 6.00413C22.3905 5.77163 22.2915 5.6025 22.2281 5.52262C22.1644 5.44238 22.0219 5.30813 21.7834 5.30813H7.90837C7.3905 5.30813 6.97087 4.8885 6.97087 4.37063C6.97087 3.85275 7.3905 3.43313 7.90837 3.43313H21.7834C22.533 3.43313 23.2297 3.7695 23.6962 4.35637C24.1627 4.94325 24.3322 5.6985 24.1627 6.42863L22.2611 14.6089C22.002 15.7208 21.0236 16.4978 19.8814 16.4978Z" fill="black"/>
</svg>
