<svg width="28" height="33" viewBox="0 0 28 33" fill="none" xmlns="http://www.w3.org/2000/svg">
<path d="M26.3961 4.41077C26.0276 4.41077 25.7295 4.70895 25.7295 5.07745V5.74414H24.3961V5.07745C24.3961 4.70895 24.098 4.41077 23.7295 4.41077C23.361 4.41077 23.0628 4.70895 23.0628 5.07745V7.74414C23.0628 8.61214 23.6218 9.3452 24.3961 9.62133V23.7441C24.3961 24.112 24.0966 24.4108 23.7294 24.4108C23.3622 24.4108 23.0627 24.112 23.0627 23.7441V22.4108C23.0627 21.5428 22.5037 20.8097 21.7294 20.5336V3.07745C21.7295 1.6067 20.5328 0.410767 19.0628 0.410767H5.72946C4.2594 0.410767 3.06278 1.6067 3.06278 3.07745V27.0775C1.59271 27.0775 0.396088 28.2734 0.396088 29.7441V31.7441C0.396088 32.1126 0.694275 32.4108 1.06278 32.4108H23.7295C24.098 32.4108 24.3961 32.1126 24.3961 31.7441V29.7441C24.3961 28.2735 23.1995 27.0775 21.7295 27.0775V23.7441C21.7295 24.847 22.6266 25.7441 23.7295 25.7441C24.8323 25.7441 25.7295 24.847 25.7295 23.7441V9.62127C26.5038 9.34514 27.0628 8.61208 27.0628 7.74408V5.07745C27.0628 4.70895 26.7646 4.41077 26.3961 4.41077ZM16.3011 18.7539L12.3011 25.4206C12.1787 25.625 11.96 25.7441 11.7295 25.7441C11.6708 25.7441 11.611 25.7363 11.5511 25.7201C11.2633 25.64 11.0628 25.377 11.0628 25.0775V21.7442H9.06277C8.82321 21.7442 8.60052 21.6153 8.48203 21.4063C8.36484 21.1973 8.36746 20.9408 8.49115 20.7345L12.4911 14.0678C12.6448 13.8113 12.9469 13.6888 13.2411 13.7683C13.529 13.8483 13.7295 14.1113 13.7295 14.4108V17.7441H15.7295C15.969 17.7441 16.1917 17.873 16.3102 18.082C16.4274 18.291 16.4248 18.5475 16.3011 18.7539ZM19.0628 11.7565C19.0628 12.125 18.7646 12.4231 18.3961 12.4231H6.39609C6.02759 12.4231 5.7294 12.125 5.7294 11.7565V3.74408C5.7294 3.37558 6.02759 3.07739 6.39609 3.07739H18.3961C18.7646 3.07739 19.0628 3.37558 19.0628 3.74408V11.7565Z" fill="white"/>
</svg>
