<svg width="61" height="61" viewBox="0 0 61 61" fill="none" xmlns="http://www.w3.org/2000/svg">
<g clip-path="url(#clip0_3022_277)">
<path d="M44.5841 31.6505L38.5841 29.489C36.1586 30.9056 33.3393 31.7186 30.3334 31.7186C27.3755 31.7186 24.598 30.9317 22.1987 29.5567L16.1649 31.6985C20.408 34.2237 25.2668 35.5721 30.3333 35.5721C35.4325 35.5721 40.3218 34.2073 44.5841 31.6505Z" fill="#01BA77"/>
<path d="M30.3334 57.04C28.2483 57.04 26.5519 58.7364 26.5519 60.8216H34.1148C34.1149 58.7364 32.4185 57.04 30.3334 57.04Z" fill="#01BA77"/>
<path d="M18.1156 53.9761C16.9763 56.0015 16.3252 58.3367 16.3252 60.8215H23.0323C23.0323 59.4901 23.3922 58.2421 24.0172 57.1662L18.1156 53.9761Z" fill="#01BA77"/>
<path d="M48.6616 33.1638C43.3623 37.0099 37.0079 39.0876 30.3334 39.0876C23.6812 39.0876 17.3473 37.0239 12.0587 33.2025C5.0209 36.2435 0.376404 43.2287 0.376404 50.9729V60.8215H12.8055C12.8055 51.1566 20.6686 43.2935 30.3335 43.2935C39.9984 43.2935 47.8614 51.1566 47.8614 60.8215H60.2905V50.911C60.2904 43.1964 55.6662 36.217 48.6616 33.1638Z" fill="#01BA77"/>
<path d="M30.3334 46.8132C26.3706 46.8132 22.7871 48.4677 20.2365 51.1216L26.5899 54.5559C27.6853 53.899 28.9658 53.5202 30.3334 53.5202C31.663 53.5202 32.9096 53.8793 33.9846 54.5028L40.3644 51.0542C37.8183 48.4399 34.2624 46.8132 30.3334 46.8132Z" fill="#01BA77"/>
<path d="M36.6045 57.0878C37.2579 58.181 37.6345 59.4579 37.6345 60.8215H44.3416C44.3416 58.3045 43.6739 55.9407 42.5071 53.8972L36.6045 57.0878Z" fill="#01BA77"/>
<path d="M43.3467 15.307V13.435C39.3862 11.3295 34.9458 10.2122 30.3334 10.2122C25.721 10.2122 21.2805 11.3295 17.3201 13.4352V15.3071C17.3201 22.4826 23.1578 28.3204 30.3334 28.3204C37.509 28.3204 43.3467 22.4826 43.3467 15.307Z" fill="#01BA77"/>
<path d="M43.3467 9.51509V0.821533H17.3201V9.51509C21.3516 7.66997 25.7673 6.69649 30.3334 6.69649C34.8995 6.69649 39.3152 7.66997 43.3467 9.51509Z" fill="#01BA77"/>
</g>
<defs>
<clipPath id="clip0_3022_277">
<rect width="60" height="60" fill="white" transform="translate(0.333374 0.821533)"/>
</clipPath>
</defs>
</svg>
