<svg width="60" height="61" viewBox="0 0 60 61" fill="none" xmlns="http://www.w3.org/2000/svg">
<g clip-path="url(#clip0_3022_225)">
<path d="M1.75822 36.0952H58.2418C59.2134 36.0952 59.9996 35.309 59.9996 34.3375V30.8219C59.9996 29.8503 59.2134 29.0641 58.2418 29.0641H1.75822C0.786627 29.0641 0.000427246 29.8503 0.000427246 30.8219V34.3375C0.000427246 35.309 0.786627 36.0952 1.75822 36.0952Z" fill="#01BA77"/>
<path d="M14.1799 15.0017H17.6956V18.5173H14.1799V15.0017Z" fill="#01BA77"/>
<path d="M14.9626 1.11763L4.41592 8.14879C3.92667 8.47491 3.63312 9.02428 3.63312 9.61127V25.5485H28.2422V9.61127C28.2422 9.02417 27.9486 8.47491 27.4594 8.14879L16.9126 1.11763C16.3222 0.722833 15.5531 0.722833 14.9626 1.11763ZM21.2111 13.244V20.2752C21.2111 21.2468 20.4249 22.033 19.4533 22.033H12.4222C11.4506 22.033 10.6644 21.2468 10.6644 20.2752V13.244C10.6644 12.2724 11.4506 11.4862 12.4222 11.4862H19.4533C20.4249 11.4862 21.2111 12.2724 21.2111 13.244Z" fill="#01BA77"/>
<path d="M14.1799 46.6421H17.6956V50.1577H14.1799V46.6421Z" fill="#01BA77"/>
<path d="M42.3046 46.6421H45.8202V50.1577H42.3046V46.6421Z" fill="#01BA77"/>
<path d="M28.2422 46.6421H31.7578V60.8216H28.2422V46.6421Z" fill="#01BA77"/>
<path d="M1.75822 60.8215H24.7267V44.8842C24.7267 43.9126 25.5129 43.1264 26.4844 43.1264H33.5156C34.4872 43.1264 35.2734 43.9126 35.2734 44.8842V60.8215H58.2418C59.2134 60.8215 59.9996 60.0353 59.9996 59.0637C59.9996 58.0921 59.2134 57.3059 58.2418 57.3059H56.484V39.6108H3.516V57.3059H1.75822C0.786627 57.3059 0.000427246 58.0921 0.000427246 59.0637C0.000427246 60.0353 0.786627 60.8215 1.75822 60.8215ZM38.789 44.8842C38.789 43.9126 39.5752 43.1264 40.5467 43.1264H47.5779C48.5495 43.1264 49.3357 43.9126 49.3357 44.8842V51.9154C49.3357 52.8869 48.5495 53.6731 47.5779 53.6731H40.5467C39.5752 53.6731 38.789 52.8869 38.789 51.9154V44.8842ZM10.6643 44.8842C10.6643 43.9126 11.4505 43.1264 12.4221 43.1264H19.4533C20.4249 43.1264 21.2111 43.9126 21.2111 44.8842V51.9154C21.2111 52.8869 20.4249 53.6731 19.4533 53.6731H12.4221C11.4505 53.6731 10.6643 52.8869 10.6643 51.9154V44.8842Z" fill="#01BA77"/>
<path d="M42.3046 15.0017H45.8202V18.5173H42.3046V15.0017Z" fill="#01BA77"/>
<path d="M56.3668 9.61127C56.3668 9.02417 56.0733 8.47491 55.584 8.14879L45.0373 1.11763C44.4468 0.722833 43.6777 0.722833 43.0872 1.11763L32.5405 8.14879C32.0512 8.47491 31.7577 9.02428 31.7577 9.61127V25.5485H56.3667V9.61127H56.3668ZM49.3357 20.2752C49.3357 21.2468 48.5495 22.033 47.5779 22.033H40.5468C39.5752 22.033 38.789 21.2468 38.789 20.2752V13.244C38.789 12.2724 39.5752 11.4862 40.5468 11.4862H47.5779C48.5495 11.4862 49.3357 12.2724 49.3357 13.244V20.2752Z" fill="#01BA77"/>
</g>
<defs>
<clipPath id="clip0_3022_225">
<rect width="60" height="60" fill="white" transform="translate(0 0.821533)"/>
</clipPath>
</defs>
</svg>
