<svg width="20" height="20" viewBox="0 0 20 20" fill="none" xmlns="http://www.w3.org/2000/svg">
<path d="M5.79976 0.000244141H14.1998C17.3998 0.000244141 19.9998 2.60024 19.9998 5.80024V14.2002C19.9998 15.7385 19.3887 17.2138 18.301 18.3015C17.2133 19.3892 15.738 20.0002 14.1998 20.0002H5.79976C2.59976 20.0002 -0.000244141 17.4002 -0.000244141 14.2002V5.80024C-0.000244141 4.26199 0.610826 2.78674 1.69854 1.69902C2.78625 0.611314 4.2615 0.000244141 5.79976 0.000244141ZM5.59976 2.00024C4.64498 2.00024 3.7293 2.37953 3.05417 3.05466C2.37904 3.72979 1.99976 4.64546 1.99976 5.60024V14.4002C1.99976 16.3902 3.60976 18.0002 5.59976 18.0002H14.3998C15.3545 18.0002 16.2702 17.621 16.9453 16.9458C17.6205 16.2707 17.9998 15.355 17.9998 14.4002V5.60024C17.9998 3.61024 16.3898 2.00024 14.3998 2.00024H5.59976ZM15.2498 3.50024C15.5813 3.50024 15.8992 3.63194 16.1336 3.86636C16.3681 4.10078 16.4998 4.41872 16.4998 4.75024C16.4998 5.08176 16.3681 5.39971 16.1336 5.63413C15.8992 5.86855 15.5813 6.00024 15.2498 6.00024C14.9182 6.00024 14.6003 5.86855 14.3659 5.63413C14.1315 5.39971 13.9998 5.08176 13.9998 4.75024C13.9998 4.41872 14.1315 4.10078 14.3659 3.86636C14.6003 3.63194 14.9182 3.50024 15.2498 3.50024ZM9.99976 5.00024C11.3258 5.00024 12.5976 5.52703 13.5353 6.46471C14.473 7.40239 14.9998 8.67416 14.9998 10.0002C14.9998 11.3263 14.473 12.5981 13.5353 13.5358C12.5976 14.4735 11.3258 15.0002 9.99976 15.0002C8.67367 15.0002 7.4019 14.4735 6.46422 13.5358C5.52654 12.5981 4.99976 11.3263 4.99976 10.0002C4.99976 8.67416 5.52654 7.40239 6.46422 6.46471C7.4019 5.52703 8.67367 5.00024 9.99976 5.00024ZM9.99976 7.00024C9.20411 7.00024 8.44104 7.31631 7.87844 7.87892C7.31583 8.44153 6.99976 9.20459 6.99976 10.0002C6.99976 10.7959 7.31583 11.559 7.87844 12.1216C8.44104 12.6842 9.20411 13.0002 9.99976 13.0002C10.7954 13.0002 11.5585 12.6842 12.1211 12.1216C12.6837 11.559 12.9998 10.7959 12.9998 10.0002C12.9998 9.20459 12.6837 8.44153 12.1211 7.87892C11.5585 7.31631 10.7954 7.00024 9.99976 7.00024Z" fill="white"/>
</svg>
