<svg width="33" height="33" viewBox="0 0 33 33" fill="none" xmlns="http://www.w3.org/2000/svg">
<g clip-path="url(#clip0_3020_120)">
<path d="M13.677 20.0494C13.5706 19.8496 13.6216 19.6021 13.7988 19.4604L14.1724 19.1507C14.638 18.7197 15.2608 18.5 15.894 18.5437C16.5409 18.5909 17.1391 18.9048 17.5455 19.4102L17.7057 19.6032L17.7142 12.3857C17.7147 11.3698 18.5084 10.5434 19.4743 10.5434C20.4418 10.5434 21.242 11.3704 21.242 12.387V15.9626C21.4713 15.8382 21.7292 15.7759 21.9898 15.7819H22.0196C22.6118 15.7855 23.1607 16.0936 23.4721 16.5977C23.6255 16.4831 23.7914 16.3859 23.9666 16.3087V5.93042H5.94042V25.7732H16.6631L13.677 20.0494Z" fill="white"/>
<path d="M15.9298 29.5814C15.9298 30.1196 15.4934 30.5557 14.9554 30.5557C14.4172 30.5557 13.9811 30.1196 13.9811 29.5814C13.9811 29.0435 14.4172 28.6071 14.9554 28.6071C15.4934 28.6071 15.9298 29.0435 15.9298 29.5814Z" fill="white"/>
<path d="M23.9666 2.7421C23.9666 1.47081 22.944 0.410767 21.6727 0.410767H8.23791C6.96662 0.410767 5.94042 1.47081 5.94042 2.7421V4.95225H23.9666V2.7421ZM17.3334 2.99592H12.5774C12.3072 2.99592 12.0883 2.77703 12.0883 2.50684C12.0883 2.23664 12.3072 2.01775 12.5774 2.01775H17.3334C17.6036 2.01775 17.8225 2.23664 17.8225 2.50684C17.8225 2.77703 17.6036 2.99592 17.3334 2.99592Z" fill="white"/>
<path d="M27.1088 17.878H27.081C26.6533 17.878 26.2726 18.2617 26.2726 18.739V19.5504C26.2726 19.8206 26.0534 20.0395 25.7835 20.0395C25.5133 20.0395 25.2944 19.8206 25.2944 19.5504V18.0521C25.2944 17.5747 24.9549 17.1864 24.5272 17.1864C24.0965 17.1864 23.7573 17.5747 23.7573 18.0521V19.6405C23.7573 19.9104 23.5381 20.1296 23.2682 20.1296C22.998 20.1296 22.7791 19.9104 22.7791 19.6405V17.6159C22.7791 17.1386 22.4472 16.7601 22.0196 16.7601H21.9898C21.5741 16.7601 21.2417 17.117 21.2417 17.5756V19.8515C21.2417 20.1214 21.0228 20.3406 20.7526 20.3406C20.4824 20.3406 20.2636 20.1214 20.2636 19.8515V17.6441C20.2636 17.6345 20.2627 17.625 20.2627 17.6154C20.2627 17.5966 20.2636 17.5777 20.2636 17.5589V12.3867C20.2636 11.9093 19.9022 11.5212 19.4748 11.5212C19.0471 11.5212 18.686 11.9091 18.6855 12.3861L18.6795 20.968C18.6795 21.1746 18.5496 21.3588 18.3553 21.4282C18.1607 21.4978 17.9437 21.4377 17.8127 21.2781L16.7879 20.0308C16.5518 19.7344 16.2027 19.5494 15.8247 19.5199C15.4557 19.4959 15.0933 19.6263 14.8241 19.8801C14.8181 19.8856 14.8119 19.8911 14.8056 19.8965L14.7267 19.962L18.2062 26.6468C18.7335 27.6588 19.727 28.2884 20.7999 28.2884H24.9063C26.546 28.2884 27.8812 26.8433 27.8828 25.0674C27.8836 24.0728 27.8847 23.3305 27.8856 22.7289C27.8875 21.1159 27.8883 20.5144 27.8842 18.7382C27.8834 18.2628 27.5354 17.878 27.1088 17.878Z" fill="white"/>
<path d="M17.3386 27.0846L17.1721 26.7513H5.94042V30.0794C5.94042 31.3507 6.96662 32.4107 8.23791 32.4107H21.6727C22.9442 32.4107 23.9666 31.3507 23.9666 30.0794V29.2666H20.7999C19.3607 29.2666 18.0349 28.4219 17.3386 27.0846ZM14.9554 31.5338C13.8771 31.5338 13.0029 30.6596 13.0029 29.5813C13.0029 28.503 13.8771 27.6288 14.9554 27.6288C16.0338 27.6288 16.9079 28.503 16.9079 29.5813C16.9066 30.6594 16.0332 31.5327 14.9554 31.5338Z" fill="white"/>
</g>
<defs>
<clipPath id="clip0_3020_120">
<rect width="32" height="32" fill="white" transform="translate(0.909851 0.410767)"/>
</clipPath>
</defs>
</svg>
