<svg width="18" height="19" viewBox="0 0 18 19" fill="none" xmlns="http://www.w3.org/2000/svg">
<path d="M18.0003 9.8218C18.0003 8.6023 17.4648 7.4518 16.5565 6.7288C16.6615 5.5123 16.2265 4.32055 15.364 3.4573C14.5015 2.59555 13.3128 2.1613 12.1563 2.29105C10.6458 0.374052 7.38254 0.338052 5.90729 2.2648C4.68929 2.1568 3.49904 2.59405 2.63654 3.4573C1.77479 4.3198 1.33979 5.5123 1.47029 6.66505C-0.44671 8.17555 -0.48346 11.4388 1.44404 12.9148C1.33904 14.1313 1.77404 15.3231 2.63654 16.1863C3.49904 17.0481 4.68929 17.4838 5.84429 17.3526C7.35479 19.2696 10.618 19.3056 12.0933 17.3788C13.3083 17.4808 14.5008 17.0496 15.364 16.1863C16.2258 15.3238 16.6608 14.1313 16.5303 12.9786C17.4648 12.1926 18.0003 11.0421 18.0003 9.82255V9.8218ZM13.1553 8.7463L9.60104 12.1723C8.72879 13.0431 7.30154 13.0356 6.42929 12.1626L4.74029 10.5936C4.43729 10.3116 4.41929 9.8368 4.70129 9.5338C4.98404 9.23005 5.45954 9.21355 5.76104 9.4948L7.46954 11.0826C7.78304 11.3953 8.25704 11.3946 8.54954 11.1013L12.1135 7.66555C12.412 7.37905 12.8868 7.3873 13.174 7.68505C13.462 7.9828 13.453 8.4583 13.1553 8.74555V8.7463Z" fill="#01BA77"/>
</svg>
