<svg width="18" height="18" viewBox="0 0 18 18" fill="none" xmlns="http://www.w3.org/2000/svg">
<path d="M15.9999 0C16.5304 0 17.0391 0.210714 17.4142 0.585786C17.7892 0.960859 17.9999 1.46957 17.9999 2V16C17.9999 16.5304 17.7892 17.0391 17.4142 17.4142C17.0391 17.7893 16.5304 18 15.9999 18H1.99994C1.46951 18 0.960798 17.7893 0.585725 17.4142C0.210653 17.0391 -6.10352e-05 16.5304 -6.10352e-05 16V2C-6.10352e-05 1.46957 0.210653 0.960859 0.585725 0.585786C0.960798 0.210714 1.46951 0 1.99994 0H15.9999ZM15.4999 15.5V10.2C15.4999 9.33539 15.1565 8.5062 14.5451 7.89483C13.9337 7.28346 13.1045 6.94 12.2399 6.94C11.3899 6.94 10.3999 7.46 9.91994 8.24V7.13H7.12994V15.5H9.91994V10.57C9.91994 9.8 10.5399 9.17 11.3099 9.17C11.6812 9.17 12.0373 9.3175 12.2999 9.58005C12.5624 9.8426 12.7099 10.1987 12.7099 10.57V15.5H15.4999ZM3.87994 5.56C4.3255 5.56 4.75282 5.383 5.06788 5.06794C5.38294 4.75288 5.55994 4.32556 5.55994 3.88C5.55994 2.95 4.80994 2.19 3.87994 2.19C3.43172 2.19 3.00186 2.36805 2.68493 2.68499C2.36799 3.00193 2.18994 3.43178 2.18994 3.88C2.18994 4.81 2.94994 5.56 3.87994 5.56ZM5.26994 15.5V7.13H2.49994V15.5H5.26994Z" fill="white"/>
</svg>
