<svg width="20" height="17" viewBox="0 0 20 17" fill="none" xmlns="http://www.w3.org/2000/svg">
<path d="M20 4.35645V13.8214C20 14.5867 19.7077 15.323 19.1827 15.8797C18.6578 16.4365 17.9399 16.7716 17.176 16.8164L17 16.8214H3C2.23479 16.8215 1.49849 16.5291 0.941739 16.0042C0.384993 15.4792 0.0498925 14.7613 0.00500011 13.9974L0 13.8214V4.35645L9.445 10.6534L9.561 10.7194C9.69771 10.7862 9.84785 10.821 10 10.821C10.1522 10.821 10.3023 10.7862 10.439 10.7194L10.555 10.6534L20 4.35645Z" fill="black"/>
<path d="M17 0.821289C18.08 0.821289 19.027 1.39129 19.555 2.24829L10 8.61829L0.445007 2.24829C0.6958 1.84111 1.0403 1.49979 1.44978 1.25278C1.85926 1.00577 2.32186 0.860226 2.79901 0.828289L3.00001 0.821289H17Z" fill="black"/>
</svg>
