<svg width="61" height="61" viewBox="0 0 61 61" fill="none" xmlns="http://www.w3.org/2000/svg">
<g clip-path="url(#clip0_3022_243)">
<path d="M32.9084 5.49648L5.43337 1.32148C4.15837 1.12148 2.85837 1.47148 1.88337 2.29648C0.908374 3.14648 0.333374 4.37148 0.333374 5.64648V58.3215C0.333374 59.6965 1.45837 60.8215 2.83337 60.8215H10.9584V47.6965C10.9584 45.2715 12.9084 43.3215 15.3334 43.3215H21.5834C24.0084 43.3215 25.9584 45.2715 25.9584 47.6965V60.8215H36.5834V9.82148C36.5834 7.67148 35.0334 5.84648 32.9084 5.49648ZM14.0834 37.6965H10.3334C9.29837 37.6965 8.45837 36.8565 8.45837 35.8215C8.45837 34.7865 9.29837 33.9465 10.3334 33.9465H14.0834C15.1184 33.9465 15.9584 34.7865 15.9584 35.8215C15.9584 36.8565 15.1184 37.6965 14.0834 37.6965ZM14.0834 30.1965H10.3334C9.29837 30.1965 8.45837 29.3565 8.45837 28.3215C8.45837 27.2865 9.29837 26.4465 10.3334 26.4465H14.0834C15.1184 26.4465 15.9584 27.2865 15.9584 28.3215C15.9584 29.3565 15.1184 30.1965 14.0834 30.1965ZM14.0834 22.6965H10.3334C9.29837 22.6965 8.45837 21.8565 8.45837 20.8215C8.45837 19.7865 9.29837 18.9465 10.3334 18.9465H14.0834C15.1184 18.9465 15.9584 19.7865 15.9584 20.8215C15.9584 21.8565 15.1184 22.6965 14.0834 22.6965ZM14.0834 15.1965H10.3334C9.29837 15.1965 8.45837 14.3565 8.45837 13.3215C8.45837 12.2865 9.29837 11.4465 10.3334 11.4465H14.0834C15.1184 11.4465 15.9584 12.2865 15.9584 13.3215C15.9584 14.3565 15.1184 15.1965 14.0834 15.1965ZM26.5834 37.6965H22.8334C21.7984 37.6965 20.9584 36.8565 20.9584 35.8215C20.9584 34.7865 21.7984 33.9465 22.8334 33.9465H26.5834C27.6184 33.9465 28.4584 34.7865 28.4584 35.8215C28.4584 36.8565 27.6184 37.6965 26.5834 37.6965ZM26.5834 30.1965H22.8334C21.7984 30.1965 20.9584 29.3565 20.9584 28.3215C20.9584 27.2865 21.7984 26.4465 22.8334 26.4465H26.5834C27.6184 26.4465 28.4584 27.2865 28.4584 28.3215C28.4584 29.3565 27.6184 30.1965 26.5834 30.1965ZM26.5834 22.6965H22.8334C21.7984 22.6965 20.9584 21.8565 20.9584 20.8215C20.9584 19.7865 21.7984 18.9465 22.8334 18.9465H26.5834C27.6184 18.9465 28.4584 19.7865 28.4584 20.8215C28.4584 21.8565 27.6184 22.6965 26.5834 22.6965ZM26.5834 15.1965H22.8334C21.7984 15.1965 20.9584 14.3565 20.9584 13.3215C20.9584 12.2865 21.7984 11.4465 22.8334 11.4465H26.5834C27.6184 11.4465 28.4584 12.2865 28.4584 13.3215C28.4584 14.3565 27.6184 15.1965 26.5834 15.1965Z" fill="white"/>
<path d="M56.8834 27.9265L39.0834 24.199V60.8215H55.9584C58.3709 60.8215 60.3334 58.859 60.3334 56.4465V32.2015C60.3334 30.1365 58.9259 28.379 56.8834 27.9265ZM50.9584 53.3215H47.2084C46.1734 53.3215 45.3334 52.4815 45.3334 51.4465C45.3334 50.4115 46.1734 49.5715 47.2084 49.5715H50.9584C51.9934 49.5715 52.8334 50.4115 52.8334 51.4465C52.8334 52.4815 51.9934 53.3215 50.9584 53.3215ZM50.9584 45.8215H47.2084C46.1734 45.8215 45.3334 44.9815 45.3334 43.9465C45.3334 42.9115 46.1734 42.0715 47.2084 42.0715H50.9584C51.9934 42.0715 52.8334 42.9115 52.8334 43.9465C52.8334 44.9815 51.9934 45.8215 50.9584 45.8215ZM50.9584 38.3215H47.2084C46.1734 38.3215 45.3334 37.4815 45.3334 36.4465C45.3334 35.4115 46.1734 34.5715 47.2084 34.5715H50.9584C51.9934 34.5715 52.8334 35.4115 52.8334 36.4465C52.8334 37.4815 51.9934 38.3215 50.9584 38.3215Z" fill="white"/>
</g>
<defs>
<clipPath id="clip0_3022_243">
<rect width="60" height="60" fill="white" transform="translate(0.333374 0.821533)"/>
</clipPath>
</defs>
</svg>
