<svg width="19" height="20" viewBox="0 0 19 20" fill="none" xmlns="http://www.w3.org/2000/svg">
<path fill-rule="evenodd" clip-rule="evenodd" d="M9.33337 8C10.9903 8 12.3334 6.65685 12.3334 5C12.3334 3.34315 10.9903 2 9.33337 2C7.67647 2 6.33337 3.34315 6.33337 5C6.33337 6.65685 7.67647 8 9.33337 8ZM9.33337 10C12.0948 10 14.3334 7.76142 14.3334 5C14.3334 2.23858 12.0948 0 9.33337 0C6.57195 0 4.33337 2.23858 4.33337 5C4.33337 7.76142 6.57195 10 9.33337 10Z" fill="black"/>
<path fill-rule="evenodd" clip-rule="evenodd" d="M6.33337 14C4.12423 14 2.33337 15.7909 2.33337 18V19C2.33337 19.5523 1.88565 20 1.33337 20C0.781094 20 0.333374 19.5523 0.333374 19V18C0.333374 14.6863 3.01966 12 6.33337 12H12.3334C15.6471 12 18.3334 14.6863 18.3334 18V19C18.3334 19.5523 17.8857 20 17.3334 20C16.7811 20 16.3334 19.5523 16.3334 19V18C16.3334 15.7909 14.5425 14 12.3334 14H6.33337Z" fill="black"/>
</svg>
