<svg width="61" height="61" viewBox="0 0 61 61" fill="none" xmlns="http://www.w3.org/2000/svg">
<path d="M53.1666 14.1853V3.94653C53.1666 3.11773 52.8373 2.32288 52.2513 1.73682C51.6652 1.15077 50.8704 0.821533 50.0416 0.821533L46.2916 0.821533C45.4628 0.821533 44.6679 1.15077 44.0819 1.73682C43.4958 2.32288 43.1666 3.11773 43.1666 3.94653V7.85528C43.1664 7.95433 43.1898 8.05199 43.2348 8.14023C43.2797 8.22846 43.3451 8.30474 43.4253 8.36278L52.1753 14.6915C52.2686 14.759 52.3787 14.7994 52.4935 14.8082C52.6083 14.8171 52.7233 14.7941 52.8258 14.7417C52.9284 14.6893 53.0144 14.6097 53.0746 14.5115C53.1347 14.4133 53.1665 14.3004 53.1666 14.1853Z" fill="#01BA77"/>
<path d="M27.3704 3.06036L2.87662 20.7791C2.21945 21.2514 1.77177 21.9608 1.62829 22.7572C1.48482 23.5537 1.65681 24.3747 2.10787 25.0466L3.26787 26.7841C3.50245 27.1323 3.80449 27.4298 4.15611 27.6592C4.50773 27.8885 4.90178 28.045 5.31495 28.1194C5.72812 28.1937 6.15201 28.1845 6.56153 28.0921C6.97105 27.9997 7.35788 27.8261 7.69912 27.5816L30.3004 11.2329C30.4069 11.1558 30.5351 11.1143 30.6666 11.1143C30.7981 11.1143 30.9263 11.1558 31.0329 11.2329L53.6341 27.5816C53.9755 27.8258 54.3623 27.9991 54.7718 28.0913C55.1812 28.1835 55.605 28.1927 56.0181 28.1183C56.4312 28.044 56.8252 27.8876 57.1768 27.6585C57.5284 27.4293 57.8306 27.132 58.0654 26.7841L59.2254 25.0466C59.6764 24.3749 59.8483 23.5541 59.7048 22.7578C59.5614 21.9616 59.1137 21.2524 58.4566 20.7804L33.9629 3.06036C33.0044 2.36511 31.8507 1.99072 30.6666 1.99072C29.4826 1.99072 28.3288 2.36511 27.3704 3.06036Z" fill="#01BA77"/>
<path d="M57.5416 53.3215H3.7916C2.06571 53.3215 0.666595 54.7206 0.666595 56.4465V57.6965C0.666595 59.4224 2.06571 60.8215 3.7916 60.8215H57.5416C59.2675 60.8215 60.6666 59.4224 60.6666 57.6965V56.4465C60.6666 54.7206 59.2675 53.3215 57.5416 53.3215Z" fill="#01BA77"/>
<path d="M52.5416 52.0715C52.7074 52.0715 52.8663 52.0057 52.9835 51.8884C53.1007 51.7712 53.1666 51.6123 53.1666 51.4465V29.0965C53.1651 28.9967 53.1406 28.8985 53.0951 28.8097C53.0495 28.7208 52.9842 28.6436 52.9041 28.584L31.0291 12.7715C30.9224 12.6982 30.796 12.6589 30.6666 12.6589C30.5372 12.6589 30.4108 12.6982 30.3041 12.7715L8.4416 28.584V28.5965C8.35765 28.6532 8.28875 28.7295 8.24085 28.8188C8.19294 28.9081 8.16746 29.0077 8.1666 29.109V51.4465C8.1666 51.6123 8.23244 51.7712 8.34965 51.8884C8.46686 52.0057 8.62584 52.0715 8.7916 52.0715H25.0416V47.0715C25.0416 45.5797 25.6342 44.1489 26.6891 43.094C27.744 42.0391 29.1748 41.4465 30.6666 41.4465C32.1584 41.4465 33.5892 42.0391 34.6441 43.094C35.699 44.1489 36.2916 45.5797 36.2916 47.0715V52.0715H52.5416ZM47.5416 46.4465C47.5416 46.778 47.4099 47.096 47.1755 47.3304C46.9411 47.5648 46.6231 47.6965 46.2916 47.6965H42.5416C42.2101 47.6965 41.8921 47.5648 41.6577 47.3304C41.4233 47.096 41.2916 46.778 41.2916 46.4465V42.6965C41.2916 42.365 41.4233 42.047 41.6577 41.8126C41.8921 41.5782 42.2101 41.4465 42.5416 41.4465H46.2916C46.6231 41.4465 46.9411 41.5782 47.1755 41.8126C47.4099 42.047 47.5416 42.365 47.5416 42.6965V46.4465ZM44.4166 31.4465H51.9166V37.6965H44.4166V31.4465ZM9.4166 31.4465H16.9166V37.6965H9.4166V31.4465ZM20.0416 46.4465C20.0416 46.778 19.9099 47.096 19.6755 47.3304C19.4411 47.5648 19.1231 47.6965 18.7916 47.6965H15.0416C14.7101 47.6965 14.3921 47.5648 14.1577 47.3304C13.9233 47.096 13.7916 46.778 13.7916 46.4465V42.6965C13.7916 42.365 13.9233 42.047 14.1577 41.8126C14.3921 41.5782 14.7101 41.4465 15.0416 41.4465H18.7916C19.1231 41.4465 19.4411 41.5782 19.6755 41.8126C19.9099 42.047 20.0416 42.365 20.0416 42.6965V46.4465ZM25.6666 37.6965H18.1666V31.4465H25.6666V37.6965ZM34.4166 37.6965H26.9166V31.4465H34.4166V37.6965ZM30.6666 26.4465C29.8013 26.4465 28.9554 26.1899 28.236 25.7092C27.5165 25.2284 26.9558 24.5452 26.6246 23.7457C26.2935 22.9463 26.2069 22.0666 26.3757 21.218C26.5445 20.3693 26.9611 19.5898 27.573 18.9779C28.1849 18.366 28.9644 17.9494 29.8131 17.7806C30.6617 17.6117 31.5414 17.6984 32.3408 18.0295C33.1403 18.3607 33.8235 18.9214 34.3043 19.6409C34.785 20.3603 35.0416 21.2062 35.0416 22.0715C35.0416 23.2318 34.5807 24.3446 33.7602 25.1651C32.9397 25.9856 31.8269 26.4465 30.6666 26.4465ZM35.6666 37.6965V31.4465H43.1666V37.6965H35.6666Z" fill="#01BA77"/>
</svg>
