<svg width="18" height="13" viewBox="0 0 18 13" fill="none" xmlns="http://www.w3.org/2000/svg">
<path d="M17.0303 6.2911L11.7802 1.0411C11.6388 0.904482 11.4493 0.828886 11.2527 0.830595C11.0561 0.832304 10.8679 0.91118 10.7289 1.05024C10.5898 1.18929 10.511 1.3774 10.5092 1.57405C10.5075 1.7707 10.5831 1.96015 10.7198 2.1016L14.6895 6.07135H1.5C1.30109 6.07135 1.11032 6.15037 0.96967 6.29102C0.829018 6.43167 0.75 6.62244 0.75 6.82135C0.75 7.02026 0.829018 7.21103 0.96967 7.35168C1.11032 7.49233 1.30109 7.57135 1.5 7.57135H14.6895L10.7198 11.5411C10.6481 11.6103 10.591 11.693 10.5517 11.7845C10.5124 11.876 10.4917 11.9745 10.4908 12.074C10.4899 12.1736 10.5089 12.2724 10.5466 12.3646C10.5843 12.4567 10.64 12.5405 10.7105 12.6109C10.7809 12.6813 10.8646 12.737 10.9568 12.7747C11.049 12.8124 11.1477 12.8314 11.2473 12.8305C11.3469 12.8297 11.4453 12.809 11.5368 12.7697C11.6283 12.7304 11.7111 12.6732 11.7802 12.6016L17.0303 7.3516C17.1709 7.21095 17.2498 7.02022 17.2498 6.82135C17.2498 6.62248 17.1709 6.43175 17.0303 6.2911Z" fill="#01BA77"/>
</svg>
