<svg width="26" height="44" viewBox="0 0 26 44" fill="none" xmlns="http://www.w3.org/2000/svg">
<rect x="0.5" y="-0.5" width="25" height="43" rx="12.5" transform="matrix(1 0 0 -1 0 43)" stroke="white"/>
<path d="M12.4537 25.8891L6.22366 19.659C6.07945 19.5149 6 19.3225 6 19.1174C6 18.9123 6.07945 18.7199 6.22366 18.5758L6.68235 18.117C6.98124 17.8185 7.46703 17.8185 7.76547 18.117L12.9971 23.3487L18.2345 18.1112C18.3787 17.9671 18.571 17.8876 18.776 17.8876C18.9812 17.8876 19.1734 17.9671 19.3178 18.1112L19.7763 18.57C19.9206 18.7142 20 18.9065 20 19.1116C20 19.3167 19.9206 19.5091 19.7763 19.6532L13.5406 25.8891C13.3959 26.0336 13.2028 26.1129 12.9974 26.1124C12.7913 26.1129 12.5983 26.0336 12.4537 25.8891Z" fill="white"/>
</svg>
