<svg width="81" height="81" viewBox="0 0 81 81" fill="none" xmlns="http://www.w3.org/2000/svg">
<rect x="0.5" y="0.821289" width="80" height="80" rx="40" fill="#01BA77"/>
<path d="M21.7291 24.029C21.7291 22.1212 23.2818 20.5684 25.1896 20.5684C27.0989 20.5684 28.6512 22.1211 28.6512 24.029C28.6512 24.898 28.3303 25.6925 27.7999 26.3009C27.7703 26.3348 27.7693 26.3838 27.7975 26.4189L30.4336 29.6988C30.5197 29.8058 30.5672 29.9393 30.5672 30.0767V34.3899C30.5672 34.4738 30.6702 34.5138 30.7268 34.452L32.2945 32.7438C32.5195 32.4984 32.9008 32.482 33.1471 32.7075C33.3924 32.9325 33.4084 33.3148 33.1834 33.56L30.4079 36.5837C30.1686 36.8444 29.7568 36.8427 29.5191 36.5837L26.7437 33.56C26.5188 33.3148 26.5347 32.9325 26.78 32.7075C27.0252 32.482 27.4075 32.4985 27.633 32.7438L29.2013 34.4521C29.2579 34.5138 29.3609 34.4738 29.3609 34.39V30.3216C29.3609 30.2998 29.3543 30.281 29.3407 30.264L26.8401 27.1541C26.8127 27.12 26.7665 27.1099 26.7274 27.1294C24.4559 28.2626 21.7291 26.6115 21.7291 24.029ZM38.1523 27.423C38.1957 27.4316 38.2263 27.4688 38.2263 27.5131V34.3899C38.2263 34.4738 38.1233 34.5138 38.0667 34.452L36.4995 32.7438C36.274 32.4985 35.8918 32.4821 35.6464 32.7076C35.4012 32.9326 35.3851 33.3149 35.6106 33.5601L38.3855 36.5838C38.6244 36.8439 39.0362 36.8432 39.2744 36.5838L42.0497 33.5601C42.2748 33.3149 42.2583 32.9326 42.013 32.7076C41.7676 32.4821 41.3854 32.4986 41.1609 32.7438L39.5926 34.4522C39.536 34.5139 39.433 34.4739 39.433 34.3901V27.5132C39.433 27.4689 39.4635 27.4317 39.507 27.423C41.0923 27.1071 42.2912 25.7063 42.2912 24.0291C42.2912 22.1213 40.7385 20.5685 38.8296 20.5685C36.9212 20.5685 35.368 22.1212 35.368 24.0291C35.3681 25.7062 36.567 27.107 38.1523 27.423ZM32.951 52.5458L28.5242 50.4243C28.0098 50.1766 27.9148 49.4835 28.3426 49.1068L36.1515 42.2203C36.215 42.1643 36.1754 42.0594 36.0906 42.0594H20.7836C20.4645 42.0594 20.2055 42.3184 20.2055 42.6376V58.6854C20.2055 59.0046 20.4645 59.2642 20.7836 59.2642H31.2457C31.2883 59.2642 31.3242 59.2363 31.3348 59.195L33.0005 52.6514C33.0113 52.6085 32.991 52.5649 32.951 52.5458ZM60.1696 47.332H56.9787C56.928 47.332 56.8867 47.3733 56.8867 47.424V53.8993C56.8867 53.95 56.928 53.9912 56.9787 53.9912H60.1696C60.5144 53.9912 60.7945 53.7104 60.7945 53.3651V47.9581C60.7945 47.6128 60.5144 47.332 60.1696 47.332ZM44.5797 50.365L40.2237 49.3659C39.7708 49.2617 39.5022 48.7956 39.6398 48.3515L42.5678 38.9162C42.5952 38.8281 42.4885 38.7589 42.4192 38.82L30.4039 49.4147C30.3542 49.4584 30.3653 49.538 30.4249 49.5666L34.297 51.4233C34.6391 51.5871 34.8188 51.9702 34.7255 52.3392L32.5317 60.9597C32.5094 61.0471 32.614 61.111 32.6816 61.0513L44.62 50.5236C44.6762 50.474 44.6529 50.3818 44.5797 50.365ZM52.4697 20.5685C50.5604 20.5685 49.0081 22.1212 49.0081 24.0291C49.0081 24.8981 49.33 25.6926 49.8595 26.301C49.889 26.3349 49.89 26.3839 49.8618 26.419L47.2256 29.6989C47.1395 29.8059 47.093 29.9394 47.093 30.0768V34.39C47.093 34.4739 46.9901 34.5139 46.9333 34.4522L45.3646 32.7438C45.1397 32.4985 44.7584 32.4821 44.5125 32.7076C44.2672 32.9326 44.2507 33.3149 44.4757 33.5601L47.2512 36.5838C47.4895 36.8432 47.9012 36.8439 48.1401 36.5838L50.9155 33.5601C51.1405 33.3149 51.1246 32.9326 50.8792 32.7076C50.6335 32.4821 50.2517 32.4986 50.0262 32.7438L48.459 34.452C48.4022 34.5138 48.2993 34.4737 48.2993 34.3899V30.3216C48.2993 30.2998 48.306 30.281 48.3196 30.264L50.8193 27.1541C50.8468 27.12 50.893 27.1099 50.932 27.1295C53.1961 28.2607 55.9308 26.6172 55.9308 24.029C55.9308 22.1212 54.3776 20.5685 52.4697 20.5685ZM51.0464 42.0595H43.33C43.289 42.0595 43.2543 42.0851 43.2421 42.1242L41.447 47.9095C41.4311 47.9609 41.4619 48.0144 41.5143 48.0264L46.6257 49.1982C47.2586 49.3435 47.461 50.1463 46.9755 50.5739L37.3023 59.1034C37.2388 59.1595 37.2784 59.2643 37.3632 59.2643H51.0464C53.3878 59.2643 55.2924 57.3584 55.2924 55.0177V46.3062C55.2924 43.9647 53.3878 42.0595 51.0464 42.0595Z" fill="white"/>
</svg>
