<svg width="33" height="33" viewBox="0 0 33 33" fill="none" xmlns="http://www.w3.org/2000/svg">
<path fill-rule="evenodd" clip-rule="evenodd" d="M28.4911 18.8729V21.1847C28.4911 21.6079 28.1492 21.9512 27.7246 21.9512C25.4265 21.9512 24.2727 24.7358 25.898 26.3611C26.1972 26.6603 26.1972 27.1469 25.898 27.446L24.2479 29.0962C23.9488 29.3953 23.4622 29.3953 23.163 29.0962C21.5377 27.4708 18.7531 28.6247 18.7531 30.9227C18.7531 31.3473 18.4098 31.6892 17.9866 31.6892H15.6527C15.2295 31.6892 14.8862 31.3473 14.8862 30.9227C14.8862 28.622 12.103 27.4695 10.4763 29.0962C10.1771 29.3953 9.69194 29.3953 9.39277 29.0962L7.74132 27.446C7.44215 27.1469 7.44215 26.6603 7.74132 26.3611C9.36661 24.7358 8.21417 21.9512 5.91475 21.9512C5.49153 21.9512 5.14825 21.6079 5.14825 21.1847V18.8729H11.3303C11.2531 19.2429 11.2124 19.6261 11.2124 20.0185C11.2124 23.1064 13.731 25.6264 16.8203 25.6264C19.9083 25.6264 22.4283 23.1064 22.4283 20.0185C22.4283 19.6261 22.3876 19.2429 22.3103 18.8729H28.4911ZM17.2595 3.19256C17.2595 3.43501 17.0627 3.63177 16.8203 3.63177C16.5779 3.63177 16.3811 3.43501 16.3811 3.19256V1.57154C16.3811 1.32916 16.5779 1.13232 16.8203 1.13232C17.0627 1.13232 17.2595 1.32916 17.2595 1.57154V3.19256ZM12.6817 4.18287C12.803 4.39275 12.7311 4.66161 12.5212 4.7829C12.3113 4.90418 12.0424 4.83221 11.9211 4.62233L11.1106 3.21967C10.9893 3.00978 11.0612 2.74092 11.2711 2.61963C11.4811 2.49835 11.7499 2.57025 11.8712 2.78014L12.6817 4.18287ZM9.21357 7.32991C9.42345 7.45119 9.49536 7.72006 9.37407 7.92994C9.25279 8.13982 8.98392 8.21179 8.77404 8.0905L7.37138 7.27996C7.16149 7.15868 7.08952 6.88981 7.21081 6.67993C7.3321 6.47005 7.60096 6.39808 7.8109 6.51937L9.21357 7.32991ZM21.7182 4.62233C21.5969 4.83221 21.328 4.90418 21.1181 4.7829C20.9083 4.66161 20.8363 4.39275 20.9576 4.18287L21.7681 2.78014C21.8894 2.57025 22.1583 2.49835 22.3682 2.61963C22.5781 2.74092 22.65 3.00978 22.5287 3.21967L21.7182 4.62233ZM24.8653 8.0905C24.6554 8.21179 24.3865 8.13982 24.2652 7.92994C24.144 7.72006 24.2159 7.45119 24.4257 7.32991L25.8284 6.51937C26.0384 6.39808 26.3072 6.47005 26.4285 6.67993C26.5498 6.88981 26.4778 7.15868 26.2679 7.27996L24.8653 8.0905ZM16.3811 17.3583H14.0355C14.02 17.3583 14.0045 17.3585 13.989 17.3589C13.4725 13.8449 11.7799 13.9718 11.7799 11.1951C11.7799 8.41283 14.0368 6.15595 16.8203 6.15595C19.6025 6.15595 21.8594 8.41283 21.8594 11.1951C21.8594 13.9718 20.1668 13.8449 19.6503 17.3589C19.6348 17.3585 19.6193 17.3583 19.6038 17.3583H17.2595V13.1028L17.4373 12.9482C18.0793 13.0906 18.5118 13.0644 18.8337 12.9521C19.2491 12.8071 19.511 12.5175 19.7752 12.1432C20.0243 11.7903 20.2879 11.3455 20.8879 10.9765C21.0413 10.882 21.1216 10.7035 21.0903 10.526C21.059 10.3485 20.9224 10.2082 20.7459 10.1721C19.0991 9.83488 18.2156 10.1084 17.6849 10.5624C17.1759 10.9977 16.9779 11.6394 16.7773 12.2228C16.655 12.0068 16.5042 11.8065 16.3063 11.6372C15.7756 11.1833 14.8922 10.9097 13.2454 11.2469C13.0688 11.283 12.9323 11.4233 12.901 11.6008C12.8696 11.7783 12.9499 11.9569 13.1034 12.0513C13.7034 12.4203 13.967 12.8652 14.216 13.218C14.4801 13.5924 14.7421 13.8819 15.1575 14.0269C15.4496 14.1288 15.8328 14.1598 16.3811 14.0583V17.3583ZM16.2568 13.1908C15.8976 13.2648 15.6438 13.2662 15.4469 13.1975C15.2104 13.115 15.0841 12.9246 14.9337 12.7116C14.7735 12.4847 14.6046 12.2304 14.3734 11.9747C15.033 11.9378 15.4531 12.0633 15.7354 12.3048C16.0101 12.5398 16.147 12.8633 16.2568 13.1908ZM17.7344 12.1159C17.8442 11.7884 17.9812 11.4649 18.2559 11.23C18.5382 10.9885 18.9582 10.863 19.618 10.8998C19.3866 11.1555 19.2176 11.4098 19.0575 11.6367C18.9071 11.8498 18.7809 12.0401 18.5443 12.1227C18.3475 12.1913 18.0937 12.19 17.7344 12.1159ZM14.0355 18.2367H19.6038C20.0624 18.2367 20.4375 18.6118 20.4375 19.0703V20.8687C20.4375 21.326 20.0624 21.701 19.6038 21.701H18.7483V22.5372C18.7483 22.9688 18.3938 23.3234 17.9622 23.3234H15.6771C15.2455 23.3234 14.891 22.9688 14.891 22.5372V21.701H14.0355C13.5769 21.701 13.2018 21.326 13.2018 20.8687V19.0703C13.2018 18.6118 13.5769 18.2367 14.0355 18.2367Z" fill="white"/>
</svg>
