<svg width="22" height="17" viewBox="0 0 22 17" fill="none" xmlns="http://www.w3.org/2000/svg">
<path d="M21.4598 2C20.6898 2.35 19.8598 2.58 18.9998 2.69C19.8798 2.16 20.5598 1.32 20.8798 0.31C20.0498 0.81 19.1298 1.16 18.1598 1.36C17.3698 0.5 16.2598 0 14.9998 0C12.6498 0 10.7298 1.92 10.7298 4.29C10.7298 4.63 10.7698 4.96 10.8398 5.27C7.2798 5.09 4.10979 3.38 1.99979 0.79C1.62979 1.42 1.4198 2.16 1.4198 2.94C1.4198 4.43 2.16979 5.75 3.32979 6.5C2.61979 6.5 1.95979 6.3 1.3798 6V6.03C1.3798 8.11 2.8598 9.85 4.8198 10.24C4.19063 10.4129 3.52983 10.4369 2.8898 10.31C3.1614 11.1625 3.69333 11.9084 4.41081 12.4429C5.12829 12.9775 5.99524 13.2737 6.88979 13.29C5.37346 14.4905 3.4938 15.1394 1.55979 15.13C1.21979 15.13 0.879795 15.11 0.539795 15.07C2.43979 16.29 4.69979 17 7.11979 17C14.9998 17 19.3298 10.46 19.3298 4.79C19.3298 4.6 19.3298 4.42 19.3198 4.23C20.1598 3.63 20.8798 2.87 21.4598 2Z" fill="white"/>
</svg>
