<svg width="61" height="61" viewBox="0 0 61 61" fill="none" xmlns="http://www.w3.org/2000/svg">
<g clip-path="url(#clip0_3022_294)">
<path d="M49.4166 36.9153H48.9478V34.5715C48.9478 32.7715 47.4666 31.2903 45.6666 31.2903H41.9166C40.1166 31.2903 38.6353 32.7715 38.6353 34.5715V36.9153H38.1666C36.3666 36.9153 34.8853 38.3965 34.8853 40.1965V57.0715C34.8853 58.8715 36.3666 60.3528 38.1666 60.3528H49.4166C51.2166 60.3528 52.6978 58.8715 52.6978 57.0715V40.1965C52.6978 38.3965 51.2166 36.9153 49.4166 36.9153ZM46.9978 48.1465L45.7228 51.8965C45.5166 52.4778 44.9728 52.8528 44.3916 52.8528C44.2416 52.8528 44.0916 52.834 43.9416 52.7778C43.2103 52.534 42.8166 51.7278 43.0603 50.9965L43.6978 49.1028H41.9166C41.4666 49.1028 41.0353 48.8778 40.7728 48.5215C40.5103 48.1465 40.4353 47.6778 40.5853 47.2465L41.8603 43.4965C42.1041 42.7653 42.9103 42.3528 43.6416 42.6153C44.3728 42.859 44.7666 43.6653 44.5228 44.3965L43.8853 46.2903H45.6666C46.1166 46.2903 46.5478 46.5153 46.8103 46.8715C47.0728 47.2465 47.148 47.7153 46.9978 48.1465Z" fill="#01BA77"/>
<path d="M26.9166 36.9153C32.3531 36.9153 36.7603 32.5081 36.7603 27.0715C36.7603 21.635 32.3531 17.2278 26.9166 17.2278C21.48 17.2278 17.0728 21.635 17.0728 27.0715C17.0728 32.5081 21.48 36.9153 26.9166 36.9153Z" fill="#01BA77"/>
<path d="M51.5166 22.1965L46.6603 21.39C46.2291 19.9088 45.6291 18.4838 44.8791 17.1338L47.7666 13.1213C48.1603 12.5588 48.1041 11.79 47.6166 11.3025L42.6853 6.37129C42.1978 5.88379 41.4291 5.82754 40.8666 6.22129L36.8541 9.10879C35.5041 8.35879 34.0791 7.75879 32.5978 7.32754L31.7916 2.47129C31.6791 1.79629 31.0978 1.29004 30.4039 1.29004H23.4289C22.7352 1.29004 22.1539 1.79629 22.0414 2.47129L21.2352 7.32754C19.7539 7.75879 18.3289 8.35879 16.9789 9.10879L12.9664 6.22129C12.4039 5.82754 11.6352 5.88379 11.1477 6.37129L6.21641 11.3025C5.72891 11.7899 5.67266 12.5588 6.06641 13.1213L8.95391 17.1338C8.20391 18.4838 7.60391 19.9088 7.17266 21.39L2.31641 22.1965C1.64141 22.309 1.13516 22.8902 1.13516 23.584V30.559C1.13516 31.2527 1.64141 31.834 2.31641 31.9465L7.17266 32.7529C7.60391 34.2342 8.20391 35.6592 8.95391 37.0092L6.06641 41.0217C5.67266 41.5842 5.72891 42.3529 6.21641 42.8404L11.1477 47.7717C11.6352 48.2592 12.4039 48.3154 12.9664 47.9217L16.9789 45.0342C18.3289 45.7842 19.7539 46.3842 21.2352 46.8154L22.0414 51.6717C22.1539 52.3467 22.7352 52.8529 23.4289 52.8529H30.4039C31.0978 52.8529 31.6791 52.3467 31.7916 51.6717L32.0728 49.9842V40.1967C32.0728 39.5967 32.1666 39.0342 32.3353 38.4904C30.7041 39.2779 28.8478 39.7279 26.9166 39.7279C19.9416 39.7279 14.2603 34.0467 14.2603 27.0717C14.2603 20.0967 19.9416 14.4154 26.9166 14.4154C33.8916 14.4154 39.5728 20.0967 39.5728 27.0717C39.5728 27.7279 39.5166 28.3842 39.4041 29.0217C40.1728 28.6654 41.0166 28.4779 41.9166 28.4779H45.6666C48.1041 28.4779 50.2228 29.9217 51.1791 32.0029L51.5166 31.9467C52.1916 31.8342 52.6978 31.2529 52.6978 30.5592V23.5842C52.6978 22.8904 52.1916 22.309 51.5166 22.1965Z" fill="#01BA77"/>
</g>
<defs>
<clipPath id="clip0_3022_294">
<rect width="60" height="60" fill="white" transform="translate(0.666626 0.821533)"/>
</clipPath>
</defs>
</svg>
