<svg width="60" height="61" viewBox="0 0 60 61" fill="none" xmlns="http://www.w3.org/2000/svg">
<path d="M57.475 38.3215H25.025L26.525 34.1165C27.3951 31.6905 28.9926 29.5919 31.0995 28.1074C33.2064 26.6229 35.7201 25.8246 38.2975 25.8215H44.2025C46.7802 25.8248 49.2941 26.6234 51.401 28.1084C53.508 29.5934 55.1053 31.6925 55.975 34.119L57.475 38.3215ZM60 50.1515C59.9996 47.8473 59.7072 45.5523 59.13 43.3215H52.5V45.8215C52.5 46.4846 52.2366 47.1205 51.7678 47.5893C51.2989 48.0581 50.663 48.3215 50 48.3215C49.337 48.3215 48.7011 48.0581 48.2322 47.5893C47.7634 47.1205 47.5 46.4846 47.5 45.8215V43.3215H35V45.8215C35 46.4846 34.7366 47.1205 34.2678 47.5893C33.7989 48.0581 33.163 48.3215 32.5 48.3215C31.837 48.3215 31.2011 48.0581 30.7322 47.5893C30.2634 47.1205 30 46.4846 30 45.8215V43.3215H23.37C22.12 47.7715 21.37 54.994 27.5 55.754V57.0715C27.5 58.0661 27.8951 59.0199 28.5983 59.7232C29.3016 60.4264 30.2554 60.8215 31.25 60.8215C32.2446 60.8215 33.1984 60.4264 33.9016 59.7232C34.6049 59.0199 35 58.0661 35 57.0715V55.8215H47.5V57.0715C47.5 58.0661 47.8951 59.0199 48.5984 59.7232C49.3016 60.4264 50.2554 60.8215 51.25 60.8215C52.2446 60.8215 53.1984 60.4264 53.9016 59.7232C54.6049 59.0199 55 58.0661 55 57.0715V55.754C56.3744 55.5932 57.6421 54.9343 58.5635 53.9019C59.4849 52.8695 59.9959 51.5353 60 50.1515ZM37.5 10.8215V20.884C34.0355 21.039 30.6951 22.2199 27.9029 24.2768C25.1108 26.3336 22.9927 29.1737 21.8175 32.4365L19.715 38.3215L18.29 43.3215C16.79 49.019 17.0575 56.289 22.79 59.3465C22.9672 59.8193 23.0684 60.3171 23.09 60.8215H2.5C1.83696 60.8215 1.20107 60.5581 0.732233 60.0893C0.263392 59.6205 0 58.9846 0 58.3215V10.8215C0 8.16937 1.05357 5.62583 2.92893 3.75047C4.8043 1.8751 7.34784 0.821533 10 0.821533L27.5 0.821533C30.1522 0.821533 32.6957 1.8751 34.5711 3.75047C36.4464 5.62583 37.5 8.16937 37.5 10.8215ZM15 48.3215C15 47.6585 14.7366 47.0226 14.2678 46.5538C13.7989 46.0849 13.163 45.8215 12.5 45.8215H10C9.33696 45.8215 8.70107 46.0849 8.23223 46.5538C7.76339 47.0226 7.5 47.6585 7.5 48.3215V50.8215C7.5 51.4846 7.76339 52.1205 8.23223 52.5893C8.70107 53.0581 9.33696 53.3215 10 53.3215H12.5C13.163 53.3215 13.7989 53.0581 14.2678 52.5893C14.7366 52.1205 15 51.4846 15 50.8215V48.3215ZM15 35.8215C15 35.1585 14.7366 34.5226 14.2678 34.0538C13.7989 33.5849 13.163 33.3215 12.5 33.3215H10C9.33696 33.3215 8.70107 33.5849 8.23223 34.0538C7.76339 34.5226 7.5 35.1585 7.5 35.8215V38.3215C7.5 38.9846 7.76339 39.6205 8.23223 40.0893C8.70107 40.5581 9.33696 40.8215 10 40.8215H12.5C13.163 40.8215 13.7989 40.5581 14.2678 40.0893C14.7366 39.6205 15 38.9846 15 38.3215V35.8215ZM15 23.3215C15 22.6585 14.7366 22.0226 14.2678 21.5538C13.7989 21.0849 13.163 20.8215 12.5 20.8215H10C9.33696 20.8215 8.70107 21.0849 8.23223 21.5538C7.76339 22.0226 7.5 22.6585 7.5 23.3215V25.8215C7.5 26.4846 7.76339 27.1205 8.23223 27.5893C8.70107 28.0581 9.33696 28.3215 10 28.3215H12.5C13.163 28.3215 13.7989 28.0581 14.2678 27.5893C14.7366 27.1205 15 26.4846 15 25.8215V23.3215ZM15 10.8215C15 10.1585 14.7366 9.52261 14.2678 9.05377C13.7989 8.58493 13.163 8.32153 12.5 8.32153H10C9.33696 8.32153 8.70107 8.58493 8.23223 9.05377C7.76339 9.52261 7.5 10.1585 7.5 10.8215V13.3215C7.5 13.9846 7.76339 14.6205 8.23223 15.0893C8.70107 15.5581 9.33696 15.8215 10 15.8215H12.5C13.163 15.8215 13.7989 15.5581 14.2678 15.0893C14.7366 14.6205 15 13.9846 15 13.3215V10.8215ZM30 10.8215C30 10.1585 29.7366 9.52261 29.2678 9.05377C28.7989 8.58493 28.163 8.32153 27.5 8.32153H25C24.337 8.32153 23.7011 8.58493 23.2322 9.05377C22.7634 9.52261 22.5 10.1585 22.5 10.8215V13.3215C22.5 13.9846 22.7634 14.6205 23.2322 15.0893C23.7011 15.5581 24.337 15.8215 25 15.8215H27.5C28.163 15.8215 28.7989 15.5581 29.2678 15.0893C29.7366 14.6205 30 13.9846 30 13.3215V10.8215Z" fill="#01BA77"/>
</svg>
