<svg width="30" height="37" viewBox="0 0 30 37" fill="none" xmlns="http://www.w3.org/2000/svg">
<path d="M21.9281 0.821289C22.0119 0.821289 22.0956 0.821289 22.1842 0.821289C22.3897 3.36008 21.4206 5.25707 20.2429 6.6308C19.0873 7.99505 17.5049 9.31819 14.9456 9.11743C14.7749 6.61499 15.7455 4.8587 16.9216 3.48813C18.0124 2.21083 20.0121 1.07422 21.9281 0.821289Z" fill="white"/>
<path d="M29.6758 27.2464C29.6758 27.2716 29.6758 27.2938 29.6758 27.3175C28.9565 29.4959 27.9306 31.3628 26.6786 33.0954C25.5356 34.6683 24.135 36.785 21.6342 36.785C19.4732 36.785 18.0378 35.3955 15.8231 35.3575C13.4803 35.3196 12.1919 36.5194 10.0499 36.8214C9.80489 36.8214 9.55986 36.8214 9.31958 36.8214C7.74666 36.5937 6.47726 35.3481 5.55248 34.2257C2.82557 30.9091 0.718337 26.6251 0.326294 21.1428C0.326294 20.6053 0.326294 20.0694 0.326294 19.532C0.49228 15.6084 2.39875 12.4183 4.9328 10.8722C6.27017 10.0502 8.10867 9.3499 10.1558 9.6629C11.0332 9.79885 11.9295 10.0992 12.7152 10.3964C13.4597 10.6825 14.3908 11.19 15.2729 11.1631C15.8705 11.1457 16.4649 10.8343 17.0672 10.6146C18.8314 9.97748 20.5608 9.24714 22.8403 9.59018C25.5799 10.0044 27.5243 11.2216 28.7257 13.0996C26.4082 14.5745 24.5761 16.7971 24.8891 20.5927C25.1673 24.0405 27.1718 26.0576 29.6758 27.2464Z" fill="white"/>
</svg>
